<?xml version="1.0" encoding="UTF-8" standalone="no"?>
<!DOCTYPE svg PUBLIC "-//W3C//DTD SVG 1.1//EN" "http://www.w3.org/Graphics/SVG/1.1/DTD/svg11.dtd">
<svg width="100%" height="100%" viewBox="0 0 1080 1080" version="1.1" xmlns="http://www.w3.org/2000/svg" xmlns:xlink="http://www.w3.org/1999/xlink" xml:space="preserve" xmlns:serif="http://www.serif.com/" style="fill-rule:evenodd;clip-rule:evenodd;stroke-linejoin:round;stroke-miterlimit:2;">
    <g id="shadow">
        <path d="M412.941,367.366L312.123,425.371C319.625,432.873 274.003,467.842 252.737,494.425C222.28,532.495 178.255,622.258 186.445,687.775C202.909,819.489 384.256,902.379 534.476,849.361C739.975,776.831 776.798,739.644 897.698,570.384C943.558,506.18 1032.16,282.238 950.179,200.256C948.598,198.675 925.615,157.778 861.79,145.013C760.68,124.791 637.594,188.34 553.811,276.215C514.379,317.572 475.653,326.991 412.941,367.366Z" style="fill-opacity:0.17;"/>
    </g>
    <g id="Logo" transform="matrix(0.981458,0,0,0.981458,540,581.777)">
        <g transform="matrix(1,0,0,1,-540,-540)">
            <g transform="matrix(4.49178,0,0,4.49178,-774.015,-332.068)">
                <g id="largePuter.svg">
                    <g>
                        <g id="Layer1">
                            <path d="M205.97,135.6L229.397,202.851L326.941,163.874L304.512,106.532L205.97,135.6Z" style="fill:rgb(2,73,89);"/>
                            <path d="M213.43,139.248L233.02,194.786L319.255,160.655L301.079,114.004L213.43,139.248Z" style="fill:rgb(95,217,217);"/>
                            <path d="M234.434,209.528L289.163,264.258L396.401,204.883L331.372,170.753L234.434,209.528Z" style="fill:rgb(2,73,89);"/>
                            <path d="M244.329,211.346L270.785,237.6L360.857,193.574L330.362,176.812L244.329,211.346Z" style="fill:rgb(95,217,217);"/>
                            <path d="M313.398,225.281L326.525,238.004L350.558,224.271L337.834,213.164L313.398,225.281Z" style="fill:rgb(95,217,217);"/>
                            <path d="M223.326,199.027L220.903,193.776C220.903,193.776 173.28,243.85 233.139,239.762C292.998,235.674 354.902,166.47 357.822,158.295C357.822,158.295 365.998,159.755 368.042,154.207C370.086,148.659 366.874,144.571 364.246,141.359L363.078,148.075C363.078,148.075 356.654,157.711 352.566,147.199C352.566,147.199 351.982,142.819 356.654,139.315C356.654,139.315 348.478,139.315 345.558,148.659C345.558,148.659 344.974,154.791 351.69,157.419C351.69,157.419 310.518,217.862 232.555,232.754C232.555,232.754 188.11,240.635 223.326,199.027Z" style="fill:rgb(242,114,68);"/>
                            <rect x="271.975" y="103.107" width="21.316" height="21.608" style="fill:rgb(242,114,68);"/>
                            <rect x="255.039" y="94.931" width="12.264" height="12.264" style="fill:rgb(242,114,68);"/>
                        </g>
                    </g>
                </g>
            </g>
        </g>
    </g>
</svg>
