<?xml version="1.0" encoding="UTF-8" standalone="no"?>
<!DOCTYPE svg PUBLIC "-//W3C//DTD SVG 1.1//EN" "http://www.w3.org/Graphics/SVG/1.1/DTD/svg11.dtd">
<svg width="100%" height="100%" viewBox="0 0 600 136" version="1.1" xmlns="http://www.w3.org/2000/svg" xmlns:xlink="http://www.w3.org/1999/xlink" xml:space="preserve" xmlns:serif="http://www.serif.com/" style="fill-rule:evenodd;clip-rule:evenodd;stroke-linejoin:round;stroke-miterlimit:2;">
    <g id="Disk-Logo-Color" serif:id="Disk Logo Color" transform="matrix(0.67345,0.278384,-0.278384,0.67345,-73.023,-130.209)">
        <g id="Text" transform="matrix(1.16571,-0.481871,0.481871,1.16571,166.647,-184.062)">
            <g transform="matrix(1,0,0,1,183,0)">
                <path d="M51.789,326.822L58.995,326.822L58.995,331.666L64.979,331.666L64.979,318.993L56.639,318.993C56.639,318.993 51.789,319.301 51.789,314.925L51.789,298.329C51.789,298.329 52.716,294.365 57.203,294.365L67.602,294.365C67.602,294.365 72.001,294.77 72.001,298.767L72.001,306.395L64.979,306.395L64.979,302.024L58.995,302.024L58.995,311.789L67.813,311.789C67.813,311.789 72.001,313.191 72.001,316.786L72.001,335.203C72.001,335.203 71.221,340.164 67.197,340.164L56.9,340.164C56.9,340.164 51.789,338.981 51.789,335.468L51.789,326.822Z" style="fill:rgb(16,76,101);"/>
            </g>
            <path d="M88.607,294.365L95.564,294.365L95.564,317.264L101.576,317.264L101.576,294.365L108.659,294.365L108.659,320.181C108.659,320.181 107.69,324.703 101.576,324.703L101.576,340.164L95.564,340.164L95.564,324.703C95.564,324.703 88.607,323.611 88.607,320.2C88.607,320.2 88.92,294.635 88.607,294.365Z" style="fill:rgb(16,76,101);"/>
            <path d="M124.77,340.164L124.77,294.365L139.852,294.365C139.852,294.365 145.512,293.685 145.512,299.829L145.512,314.233C145.512,314.233 145.514,321.019 140.4,321.019L132.532,321.019L132.532,340.164L124.77,340.164ZM132.532,301.936L132.532,314.233L137.875,314.233L137.875,301.936L132.532,301.936Z" style="fill:rgb(16,76,101);"/>
            <path d="M161.583,298.244C161.583,298.244 162.752,294.342 168.775,294.342L175.027,294.342C175.027,294.342 182.1,294.431 182.1,298.244L182.1,335.157C182.1,335.157 180.185,340.164 175.027,340.164L168.775,340.164C168.775,340.164 161.583,339.022 161.583,334.709L161.583,298.244ZM168.775,302.02L168.775,332.232L175.027,332.232L175.027,302.02L168.775,302.02Z" style="fill:rgb(16,76,101);"/>
            <g transform="matrix(1,0,0,1,147,0)">
                <path d="M51.789,326.822L58.995,326.822L58.995,331.666L64.979,331.666L64.979,318.993L56.639,318.993C56.639,318.993 51.789,319.301 51.789,314.925L51.789,298.329C51.789,298.329 52.716,294.365 57.203,294.365L67.602,294.365C67.602,294.365 72.001,294.77 72.001,298.767L72.001,306.395L64.979,306.395L64.979,302.024L58.995,302.024L58.995,311.789L67.813,311.789C67.813,311.789 72.001,313.191 72.001,316.786L72.001,335.203C72.001,335.203 71.221,340.164 67.197,340.164L56.9,340.164C56.9,340.164 51.789,338.981 51.789,335.468L51.789,326.822Z" style="fill:rgb(16,76,101);"/>
            </g>
            <path d="M51.789,326.822L58.995,326.822L58.995,331.666L64.979,331.666L64.979,318.993L56.639,318.993C56.639,318.993 51.789,319.301 51.789,314.925L51.789,298.329C51.789,298.329 52.716,294.365 57.203,294.365L67.602,294.365C67.602,294.365 72.001,294.77 72.001,298.767L72.001,306.395L64.979,306.395L64.979,302.024L58.995,302.024L58.995,311.789L67.813,311.789C67.813,311.789 72.001,313.191 72.001,316.786L72.001,335.203C72.001,335.203 71.221,340.164 67.197,340.164L56.9,340.164C56.9,340.164 51.789,338.981 51.789,335.468L51.789,326.822Z" style="fill:rgb(16,76,101);"/>
            <path d="M298.095,340.164L298.095,294.342L313.747,294.342C313.747,294.342 318.88,294.806 318.88,299.658L318.88,340.164L311.095,340.164C311.095,340.164 311.664,301.895 311.095,302.02C310.525,302.144 305.628,302.02 305.628,302.02L305.628,340.164L298.095,340.164Z" style="fill:rgb(16,76,101);"/>
            <path d="M334.945,294.342L351.22,294.342L351.22,302.02L342.056,302.02L342.056,312.226L348.788,312.226L348.788,320.07L342.056,320.07L342.056,332.232L351.22,332.232L351.22,340.164L334.945,340.164L334.945,294.342Z" style="fill:rgb(16,76,101);"/>
            <path d="M368.043,294.342L368.043,302.02L374.156,302.02L374.156,340.164L382.153,340.164L382.153,302.02L388,302.02L388,294.342L368.043,294.342Z" style="fill:rgb(16,76,101);"/>
            <path d="M404.696,294.342L404.696,335.038C404.696,335.038 405.271,340.164 410.33,340.164L416.528,340.164C416.528,340.164 421.335,338.959 421.335,336.303C421.335,336.303 422.6,340.164 425.889,340.164L432.466,340.164C432.466,340.164 437.991,338.453 437.991,334.912L437.991,294.342L430.598,294.342L430.598,332.232L424.877,332.232L424.877,294.342L417.542,294.342L417.542,332.232L411.848,332.232L411.848,294.342L404.696,294.342Z" style="fill:rgb(16,76,101);"/>
            <g transform="matrix(1,0,0,1,293,0)">
                <path d="M161.583,298.244C161.583,298.244 162.752,294.342 168.775,294.342L175.027,294.342C175.027,294.342 182.1,294.431 182.1,298.244L182.1,335.157C182.1,335.157 180.185,340.164 175.027,340.164L168.775,340.164C168.775,340.164 161.583,339.022 161.583,334.709L161.583,298.244ZM168.775,302.02L168.775,332.232L175.027,332.232L175.027,302.02L168.775,302.02Z" style="fill:rgb(16,76,101);"/>
            </g>
            <path d="M490.99,340.164L490.99,294.342L503.932,294.342C503.932,294.342 511.298,293.024 511.298,302.02L511.298,314.376C511.298,314.376 509.734,317.593 507.963,317.593C507.963,317.593 511.298,318.121 511.298,320.956L511.298,340.164L503.932,340.164L503.932,320.956L498.172,320.956L498.172,340.164L490.99,340.164ZM498.172,302.02L498.172,314.376L503.932,314.376L503.932,302.02L498.172,302.02Z" style="fill:rgb(16,76,101);"/>
            <path d="M527.84,294.342L527.84,340.164L535.048,340.164L535.048,320.956L541.12,320.956L541.12,340.164L548.187,340.164L548.187,320.956C548.187,320.956 547.554,317.593 544.645,317.593C544.645,317.593 548.187,316.345 548.187,314.376L548.187,294.275L541.12,294.342L541.12,314.376L535.048,314.376L535.048,294.342L527.84,294.342Z" style="fill:rgb(16,76,101);"/>
        </g>
        <g transform="matrix(0.982143,0,0,1.04036,6.17921,-7.7534)">
            <path d="M332.585,116.897C340.377,119.207 346.036,126.083 346.036,134.197L346.036,234.818C346.036,244.824 337.431,252.947 326.832,252.947L227.746,252.947C217.147,252.947 208.542,244.824 208.542,234.818L208.542,134.197C208.542,126.554 213.564,120.008 220.66,117.344C222.107,108.93 229.847,102.498 239.166,102.498L314.162,102.498C323.315,102.498 330.945,108.703 332.585,116.897Z" style="fill:rgb(16,76,101);"/>
        </g>
        <g transform="matrix(1.03226,0,0,1.03604,-8.6478,-7.3125)">
            <path d="M325.166,189.083L325.166,216.76C325.166,227.925 316.069,236.988 304.864,236.988L250.327,236.988C239.123,236.988 230.026,227.925 230.026,216.76L230.026,189.083C230.026,177.919 239.123,168.855 250.327,168.855L304.864,168.855C316.069,168.855 325.166,177.919 325.166,189.083Z" style="fill:white;"/>
        </g>
        <g transform="matrix(1.09302,0,0,1.06522,-27.8356,-15.1755)">
            <path d="M319.028,190.339L319.028,218.574C319.028,226.366 312.863,232.692 305.27,232.692L253.605,232.692C246.012,232.692 239.847,226.366 239.847,218.574L239.847,190.339C239.847,182.547 246.012,176.221 253.605,176.221L305.27,176.221C312.863,176.221 319.028,182.547 319.028,190.339Z" style="fill:rgb(16,76,101);"/>
        </g>
        <g transform="matrix(1,0,0,1.06587,0,-8.59949)">
            <path d="M325.675,137.599L325.675,141.569C325.675,146.007 321.835,149.609 317.105,149.609L239.616,149.609C234.886,149.609 231.046,146.007 231.046,141.569L231.046,115.732C231.046,111.294 234.886,107.692 239.616,107.692L317.105,107.692C321.835,107.692 325.675,111.294 325.675,115.732L325.675,119.466L328.846,119.466C330.975,119.466 332.703,121.088 332.703,123.084L332.703,133.981C332.703,135.978 330.975,137.599 328.846,137.599L325.675,137.599Z" style="fill:rgb(231,255,200);"/>
        </g>
        <g transform="matrix(1.01254,0,0,1,-3.62553,0)">
            <path d="M253.581,145.843L245.241,145.843C240.443,145.843 236.547,141.898 236.547,137.04L236.547,119.433C236.547,114.574 240.443,110.629 245.241,110.629L253.581,110.629L253.581,145.843ZM258.786,110.629L275.753,110.629L275.753,145.843L258.786,145.843L258.786,110.629ZM281.354,110.629L297.766,110.629L297.766,145.843L281.354,145.843L281.354,110.629ZM303.757,110.629L311.996,110.629C316.794,110.629 320.69,114.574 320.69,119.433L320.69,137.04C320.69,141.898 316.794,145.843 311.996,145.843L303.757,145.843L303.757,110.629Z" style="fill:rgb(81,174,229);"/>
            <g>
                <clipPath id="_clip1">
                    <path d="M253.581,145.843L245.241,145.843C240.443,145.843 236.547,141.898 236.547,137.04L236.547,119.433C236.547,114.574 240.443,110.629 245.241,110.629L253.581,110.629L253.581,145.843ZM258.786,110.629L275.753,110.629L275.753,145.843L258.786,145.843L258.786,110.629ZM281.354,110.629L297.766,110.629L297.766,145.843L281.354,145.843L281.354,110.629ZM303.757,110.629L311.996,110.629C316.794,110.629 320.69,114.574 320.69,119.433L320.69,137.04C320.69,141.898 316.794,145.843 311.996,145.843L303.757,145.843L303.757,110.629Z"/>
                </clipPath>
                <g clip-path="url(#_clip1)">
                    <g transform="matrix(0.987616,0,0,1,3.58064,0)">
                        <path d="M253.135,145.843L244.691,145.843C239.832,145.843 235.887,141.898 235.887,137.04L235.887,119.433C235.887,114.574 239.832,110.629 244.691,110.629L253.135,110.629L253.135,145.843Z" style="fill:rgb(226,110,68);"/>
                    </g>
                    <g transform="matrix(0.987616,0,0,1,3.58064,0)">
                        <rect x="258.406" y="110.629" width="17.179" height="35.214" style="fill:rgb(131,202,44);"/>
                    </g>
                    <g transform="matrix(0.987616,0,0,1,3.58064,0)">
                        <rect x="281.256" y="110.629" width="16.618" height="35.214" style="fill:rgb(81,174,229);"/>
                    </g>
                    <g transform="matrix(0.987616,0,0,1,3.58064,0)">
                        <path d="M303.941,110.629L312.282,110.629C317.141,110.629 321.086,114.574 321.086,119.433L321.086,137.04C321.086,141.898 317.141,145.843 312.282,145.843L303.941,145.843L303.941,110.629Z" style="fill:rgb(226,59,59);"/>
                    </g>
                </g>
            </g>
        </g>
    </g>
</svg>
